<mxfile host="app.diagrams.net" modified="2020-10-26T12:04:41.552Z" agent="5.0 (Windows)" etag="L4htRam6UGawq-u9AP62" version="13.8.2" type="github">
  <diagram id="g_HcBNm5QV51gmT7OhGk" name="Page-1">
    <mxGraphModel dx="617" dy="631" grid="1" gridSize="10" guides="1" tooltips="1" connect="1" arrows="1" fold="1" page="1" pageScale="1" pageWidth="1100" pageHeight="850" math="0" shadow="0">
      <root>
        <mxCell id="0" />
        <mxCell id="1" parent="0" />
        <mxCell id="V5hoFHGnkRwSR9a1hQXE-1" value="" style="ellipse;whiteSpace=wrap;html=1;aspect=fixed;" vertex="1" parent="1">
          <mxGeometry x="320" y="200" width="40" height="40" as="geometry" />
        </mxCell>
        <mxCell id="V5hoFHGnkRwSR9a1hQXE-2" value="" style="endArrow=none;html=1;strokeWidth=3;" edge="1" parent="1">
          <mxGeometry width="50" height="50" relative="1" as="geometry">
            <mxPoint x="240" y="240" as="sourcePoint" />
            <mxPoint x="240" y="200" as="targetPoint" />
          </mxGeometry>
        </mxCell>
        <mxCell id="V5hoFHGnkRwSR9a1hQXE-26" style="edgeStyle=none;rounded=0;orthogonalLoop=1;jettySize=auto;html=1;strokeWidth=1;" edge="1" parent="1" source="V5hoFHGnkRwSR9a1hQXE-5">
          <mxGeometry relative="1" as="geometry">
            <mxPoint x="240" y="219.9999999999999" as="targetPoint" />
          </mxGeometry>
        </mxCell>
        <mxCell id="V5hoFHGnkRwSR9a1hQXE-27" style="edgeStyle=none;rounded=0;orthogonalLoop=1;jettySize=auto;html=1;strokeWidth=1;" edge="1" parent="1" source="V5hoFHGnkRwSR9a1hQXE-5">
          <mxGeometry relative="1" as="geometry">
            <mxPoint x="240" y="419.9999999999999" as="targetPoint" />
          </mxGeometry>
        </mxCell>
        <mxCell id="V5hoFHGnkRwSR9a1hQXE-5" value="" style="ellipse;whiteSpace=wrap;html=1;aspect=fixed;" vertex="1" parent="1">
          <mxGeometry x="320" y="300" width="40" height="40" as="geometry" />
        </mxCell>
        <mxCell id="V5hoFHGnkRwSR9a1hQXE-6" value="" style="endArrow=none;html=1;strokeWidth=3;" edge="1" parent="1">
          <mxGeometry width="50" height="50" relative="1" as="geometry">
            <mxPoint x="440" y="240" as="sourcePoint" />
            <mxPoint x="440" y="200" as="targetPoint" />
          </mxGeometry>
        </mxCell>
        <mxCell id="V5hoFHGnkRwSR9a1hQXE-7" value="" style="ellipse;whiteSpace=wrap;html=1;aspect=fixed;" vertex="1" parent="1">
          <mxGeometry x="319.58" y="400" width="40" height="40" as="geometry" />
        </mxCell>
        <mxCell id="V5hoFHGnkRwSR9a1hQXE-8" value="" style="endArrow=none;html=1;strokeWidth=3;" edge="1" parent="1">
          <mxGeometry width="50" height="50" relative="1" as="geometry">
            <mxPoint x="239.5799999999999" y="440.0000000000001" as="sourcePoint" />
            <mxPoint x="239.5799999999999" y="400" as="targetPoint" />
          </mxGeometry>
        </mxCell>
        <mxCell id="V5hoFHGnkRwSR9a1hQXE-9" value="" style="endArrow=none;html=1;strokeWidth=3;" edge="1" parent="1">
          <mxGeometry width="50" height="50" relative="1" as="geometry">
            <mxPoint x="439.58" y="440.0000000000001" as="sourcePoint" />
            <mxPoint x="439.58" y="400" as="targetPoint" />
          </mxGeometry>
        </mxCell>
        <mxCell id="V5hoFHGnkRwSR9a1hQXE-46" style="edgeStyle=none;rounded=0;orthogonalLoop=1;jettySize=auto;html=1;strokeWidth=1;" edge="1" parent="1" source="V5hoFHGnkRwSR9a1hQXE-11">
          <mxGeometry relative="1" as="geometry">
            <mxPoint x="440" y="420" as="targetPoint" />
          </mxGeometry>
        </mxCell>
        <mxCell id="V5hoFHGnkRwSR9a1hQXE-11" value="" style="ellipse;whiteSpace=wrap;html=1;aspect=fixed;" vertex="1" parent="1">
          <mxGeometry x="520" y="500" width="40" height="40" as="geometry" />
        </mxCell>
        <mxCell id="V5hoFHGnkRwSR9a1hQXE-12" value="" style="ellipse;whiteSpace=wrap;html=1;aspect=fixed;" vertex="1" parent="1">
          <mxGeometry x="520" y="400" width="40" height="40" as="geometry" />
        </mxCell>
        <mxCell id="V5hoFHGnkRwSR9a1hQXE-20" style="rounded=0;orthogonalLoop=1;jettySize=auto;html=1;strokeWidth=1;" edge="1" parent="1" source="V5hoFHGnkRwSR9a1hQXE-13">
          <mxGeometry relative="1" as="geometry">
            <mxPoint x="640" y="220" as="targetPoint" />
          </mxGeometry>
        </mxCell>
        <mxCell id="V5hoFHGnkRwSR9a1hQXE-13" value="" style="ellipse;whiteSpace=wrap;html=1;aspect=fixed;" vertex="1" parent="1">
          <mxGeometry x="520" y="200" width="40" height="40" as="geometry" />
        </mxCell>
        <mxCell id="V5hoFHGnkRwSR9a1hQXE-14" value="" style="ellipse;whiteSpace=wrap;html=1;aspect=fixed;" vertex="1" parent="1">
          <mxGeometry x="520" y="100" width="40" height="40" as="geometry" />
        </mxCell>
        <mxCell id="V5hoFHGnkRwSR9a1hQXE-16" value="" style="endArrow=none;html=1;strokeWidth=3;" edge="1" parent="1">
          <mxGeometry width="50" height="50" relative="1" as="geometry">
            <mxPoint x="640.42" y="240.0000000000001" as="sourcePoint" />
            <mxPoint x="640.42" y="200" as="targetPoint" />
          </mxGeometry>
        </mxCell>
        <mxCell id="V5hoFHGnkRwSR9a1hQXE-17" value="" style="endArrow=none;html=1;strokeWidth=3;" edge="1" parent="1">
          <mxGeometry width="50" height="50" relative="1" as="geometry">
            <mxPoint x="639.9999999999999" y="445" as="sourcePoint" />
            <mxPoint x="640" y="395" as="targetPoint" />
          </mxGeometry>
        </mxCell>
        <mxCell id="V5hoFHGnkRwSR9a1hQXE-18" value="" style="ellipse;whiteSpace=wrap;html=1;aspect=fixed;" vertex="1" parent="1">
          <mxGeometry x="720.42" y="400" width="40" height="40" as="geometry" />
        </mxCell>
        <mxCell id="V5hoFHGnkRwSR9a1hQXE-19" value="" style="ellipse;whiteSpace=wrap;html=1;aspect=fixed;" vertex="1" parent="1">
          <mxGeometry x="720.42" y="200" width="40" height="40" as="geometry" />
        </mxCell>
        <mxCell id="V5hoFHGnkRwSR9a1hQXE-21" value="" style="endArrow=classic;html=1;strokeWidth=1;" edge="1" parent="1" target="V5hoFHGnkRwSR9a1hQXE-13">
          <mxGeometry width="50" height="50" relative="1" as="geometry">
            <mxPoint x="440" y="220" as="sourcePoint" />
            <mxPoint x="620" y="340" as="targetPoint" />
          </mxGeometry>
        </mxCell>
        <mxCell id="V5hoFHGnkRwSR9a1hQXE-22" value="" style="endArrow=classic;html=1;strokeWidth=1;" edge="1" parent="1" target="V5hoFHGnkRwSR9a1hQXE-14">
          <mxGeometry width="50" height="50" relative="1" as="geometry">
            <mxPoint x="640" y="210" as="sourcePoint" />
            <mxPoint x="620" y="340" as="targetPoint" />
          </mxGeometry>
        </mxCell>
        <mxCell id="V5hoFHGnkRwSR9a1hQXE-23" value="" style="endArrow=classic;html=1;strokeWidth=1;" edge="1" parent="1" source="V5hoFHGnkRwSR9a1hQXE-14">
          <mxGeometry width="50" height="50" relative="1" as="geometry">
            <mxPoint x="570" y="390" as="sourcePoint" />
            <mxPoint x="440" y="220" as="targetPoint" />
          </mxGeometry>
        </mxCell>
        <mxCell id="V5hoFHGnkRwSR9a1hQXE-24" value="" style="endArrow=classic;html=1;strokeWidth=1;" edge="1" parent="1">
          <mxGeometry width="50" height="50" relative="1" as="geometry">
            <mxPoint x="557" y="230" as="sourcePoint" />
            <mxPoint x="640" y="230" as="targetPoint" />
          </mxGeometry>
        </mxCell>
        <mxCell id="V5hoFHGnkRwSR9a1hQXE-25" value="" style="endArrow=classic;html=1;strokeWidth=1;" edge="1" parent="1">
          <mxGeometry width="50" height="50" relative="1" as="geometry">
            <mxPoint x="557" y="210" as="sourcePoint" />
            <mxPoint x="640" y="210" as="targetPoint" />
          </mxGeometry>
        </mxCell>
        <mxCell id="V5hoFHGnkRwSR9a1hQXE-29" value="" style="endArrow=classic;html=1;strokeWidth=1;" edge="1" parent="1">
          <mxGeometry width="50" height="50" relative="1" as="geometry">
            <mxPoint x="239.58" y="419.65999999999985" as="sourcePoint" />
            <mxPoint x="319.58000000000004" y="419.65999999999985" as="targetPoint" />
          </mxGeometry>
        </mxCell>
        <mxCell id="V5hoFHGnkRwSR9a1hQXE-30" value="" style="endArrow=classic;html=1;strokeWidth=1;" edge="1" parent="1">
          <mxGeometry width="50" height="50" relative="1" as="geometry">
            <mxPoint x="360.00000000000006" y="419.65999999999985" as="sourcePoint" />
            <mxPoint x="440.00000000000006" y="419.65999999999985" as="targetPoint" />
          </mxGeometry>
        </mxCell>
        <mxCell id="V5hoFHGnkRwSR9a1hQXE-31" value="" style="endArrow=classic;html=1;strokeWidth=1;" edge="1" parent="1">
          <mxGeometry width="50" height="50" relative="1" as="geometry">
            <mxPoint x="239.58" y="219.65999999999985" as="sourcePoint" />
            <mxPoint x="319.58000000000004" y="219.65999999999985" as="targetPoint" />
          </mxGeometry>
        </mxCell>
        <mxCell id="V5hoFHGnkRwSR9a1hQXE-32" value="" style="endArrow=classic;html=1;strokeWidth=1;" edge="1" parent="1">
          <mxGeometry width="50" height="50" relative="1" as="geometry">
            <mxPoint x="359.58000000000004" y="219.65999999999985" as="sourcePoint" />
            <mxPoint x="439.58000000000004" y="219.65999999999985" as="targetPoint" />
          </mxGeometry>
        </mxCell>
        <mxCell id="V5hoFHGnkRwSR9a1hQXE-33" style="edgeStyle=none;rounded=0;orthogonalLoop=1;jettySize=auto;html=1;strokeWidth=1;" edge="1" parent="1" target="V5hoFHGnkRwSR9a1hQXE-5">
          <mxGeometry relative="1" as="geometry">
            <mxPoint x="430" y="320" as="targetPoint" />
            <mxPoint x="440" y="420" as="sourcePoint" />
          </mxGeometry>
        </mxCell>
        <mxCell id="V5hoFHGnkRwSR9a1hQXE-34" style="edgeStyle=none;rounded=0;orthogonalLoop=1;jettySize=auto;html=1;strokeWidth=1;" edge="1" parent="1" target="V5hoFHGnkRwSR9a1hQXE-5">
          <mxGeometry relative="1" as="geometry">
            <mxPoint x="364.14213562373106" y="344.14213562373095" as="targetPoint" />
            <mxPoint x="440" y="220" as="sourcePoint" />
          </mxGeometry>
        </mxCell>
        <mxCell id="V5hoFHGnkRwSR9a1hQXE-35" value="" style="endArrow=classic;html=1;strokeWidth=1;" edge="1" parent="1">
          <mxGeometry width="50" height="50" relative="1" as="geometry">
            <mxPoint x="440" y="420.15999999999985" as="sourcePoint" />
            <mxPoint x="520" y="420.15999999999985" as="targetPoint" />
          </mxGeometry>
        </mxCell>
        <mxCell id="V5hoFHGnkRwSR9a1hQXE-36" value="" style="endArrow=classic;html=1;strokeWidth=1;exitX=0.5;exitY=1;exitDx=0;exitDy=0;" edge="1" parent="1" source="V5hoFHGnkRwSR9a1hQXE-12">
          <mxGeometry width="50" height="50" relative="1" as="geometry">
            <mxPoint x="560" y="439.77" as="sourcePoint" />
            <mxPoint x="640" y="440" as="targetPoint" />
          </mxGeometry>
        </mxCell>
        <mxCell id="V5hoFHGnkRwSR9a1hQXE-37" style="rounded=0;orthogonalLoop=1;jettySize=auto;html=1;strokeWidth=1;" edge="1" parent="1">
          <mxGeometry relative="1" as="geometry">
            <mxPoint x="640" y="408" as="targetPoint" />
            <mxPoint x="556" y="408" as="sourcePoint" />
          </mxGeometry>
        </mxCell>
        <mxCell id="V5hoFHGnkRwSR9a1hQXE-39" style="rounded=0;orthogonalLoop=1;jettySize=auto;html=1;strokeWidth=1;exitX=0.5;exitY=0;exitDx=0;exitDy=0;" edge="1" parent="1" source="V5hoFHGnkRwSR9a1hQXE-12">
          <mxGeometry relative="1" as="geometry">
            <mxPoint x="640" y="400" as="targetPoint" />
            <mxPoint x="550" y="400" as="sourcePoint" />
          </mxGeometry>
        </mxCell>
        <mxCell id="V5hoFHGnkRwSR9a1hQXE-41" style="rounded=0;orthogonalLoop=1;jettySize=auto;html=1;strokeWidth=1;" edge="1" parent="1">
          <mxGeometry relative="1" as="geometry">
            <mxPoint x="640" y="432" as="targetPoint" />
            <mxPoint x="556" y="432" as="sourcePoint" />
          </mxGeometry>
        </mxCell>
        <mxCell id="V5hoFHGnkRwSR9a1hQXE-42" style="rounded=0;orthogonalLoop=1;jettySize=auto;html=1;strokeWidth=1;" edge="1" parent="1">
          <mxGeometry relative="1" as="geometry">
            <mxPoint x="640" y="424" as="targetPoint" />
            <mxPoint x="560" y="424" as="sourcePoint" />
          </mxGeometry>
        </mxCell>
        <mxCell id="V5hoFHGnkRwSR9a1hQXE-43" style="rounded=0;orthogonalLoop=1;jettySize=auto;html=1;strokeWidth=1;" edge="1" parent="1">
          <mxGeometry relative="1" as="geometry">
            <mxPoint x="640" y="416" as="targetPoint" />
            <mxPoint x="560" y="416" as="sourcePoint" />
          </mxGeometry>
        </mxCell>
        <mxCell id="V5hoFHGnkRwSR9a1hQXE-45" value="" style="endArrow=classic;html=1;strokeWidth=1;" edge="1" parent="1">
          <mxGeometry width="50" height="50" relative="1" as="geometry">
            <mxPoint x="640.4200000000001" y="219.57999999999993" as="sourcePoint" />
            <mxPoint x="720.4200000000001" y="219.57999999999993" as="targetPoint" />
          </mxGeometry>
        </mxCell>
        <mxCell id="V5hoFHGnkRwSR9a1hQXE-47" style="edgeStyle=none;rounded=0;orthogonalLoop=1;jettySize=auto;html=1;strokeWidth=1;" edge="1" parent="1" target="V5hoFHGnkRwSR9a1hQXE-11">
          <mxGeometry relative="1" as="geometry">
            <mxPoint x="450" y="430" as="targetPoint" />
            <mxPoint x="640" y="440" as="sourcePoint" />
          </mxGeometry>
        </mxCell>
        <mxCell id="V5hoFHGnkRwSR9a1hQXE-51" value="" style="endArrow=classic;html=1;strokeWidth=1;exitX=0.5;exitY=1;exitDx=0;exitDy=0;" edge="1" parent="1">
          <mxGeometry width="50" height="50" relative="1" as="geometry">
            <mxPoint x="640" y="439.52" as="sourcePoint" />
            <mxPoint x="740.0000000000001" y="439.52" as="targetPoint" />
          </mxGeometry>
        </mxCell>
        <mxCell id="V5hoFHGnkRwSR9a1hQXE-52" style="rounded=0;orthogonalLoop=1;jettySize=auto;html=1;strokeWidth=1;" edge="1" parent="1">
          <mxGeometry relative="1" as="geometry">
            <mxPoint x="724" y="431.88" as="targetPoint" />
            <mxPoint x="640" y="432" as="sourcePoint" />
          </mxGeometry>
        </mxCell>
        <mxCell id="V5hoFHGnkRwSR9a1hQXE-53" style="rounded=0;orthogonalLoop=1;jettySize=auto;html=1;strokeWidth=1;" edge="1" parent="1">
          <mxGeometry relative="1" as="geometry">
            <mxPoint x="720.4200000000001" y="423.88" as="targetPoint" />
            <mxPoint x="640.42" y="423.88" as="sourcePoint" />
          </mxGeometry>
        </mxCell>
        <mxCell id="V5hoFHGnkRwSR9a1hQXE-54" style="rounded=0;orthogonalLoop=1;jettySize=auto;html=1;strokeWidth=1;" edge="1" parent="1">
          <mxGeometry relative="1" as="geometry">
            <mxPoint x="720.4200000000001" y="415.88" as="targetPoint" />
            <mxPoint x="640.42" y="415.88" as="sourcePoint" />
          </mxGeometry>
        </mxCell>
        <mxCell id="V5hoFHGnkRwSR9a1hQXE-55" style="rounded=0;orthogonalLoop=1;jettySize=auto;html=1;strokeWidth=1;" edge="1" parent="1">
          <mxGeometry relative="1" as="geometry">
            <mxPoint x="725" y="408" as="targetPoint" />
            <mxPoint x="640" y="408" as="sourcePoint" />
          </mxGeometry>
        </mxCell>
        <mxCell id="V5hoFHGnkRwSR9a1hQXE-56" style="rounded=0;orthogonalLoop=1;jettySize=auto;html=1;strokeWidth=1;exitX=0.5;exitY=0;exitDx=0;exitDy=0;" edge="1" parent="1">
          <mxGeometry relative="1" as="geometry">
            <mxPoint x="740.0000000000001" y="399.52" as="targetPoint" />
            <mxPoint x="640" y="399.52" as="sourcePoint" />
          </mxGeometry>
        </mxCell>
        <mxCell id="V5hoFHGnkRwSR9a1hQXE-57" value="" style="endArrow=classic;html=1;strokeWidth=1;" edge="1" parent="1">
          <mxGeometry width="50" height="50" relative="1" as="geometry">
            <mxPoint x="758" y="430" as="sourcePoint" />
            <mxPoint x="840" y="430" as="targetPoint" />
          </mxGeometry>
        </mxCell>
        <mxCell id="V5hoFHGnkRwSR9a1hQXE-58" style="rounded=0;orthogonalLoop=1;jettySize=auto;html=1;strokeWidth=1;exitX=1;exitY=0.5;exitDx=0;exitDy=0;" edge="1" parent="1" source="V5hoFHGnkRwSR9a1hQXE-18">
          <mxGeometry relative="1" as="geometry">
            <mxPoint x="840" y="420" as="targetPoint" />
            <mxPoint x="753" y="419.92" as="sourcePoint" />
          </mxGeometry>
        </mxCell>
        <mxCell id="V5hoFHGnkRwSR9a1hQXE-61" value="" style="endArrow=classic;html=1;strokeWidth=1;" edge="1" parent="1">
          <mxGeometry width="50" height="50" relative="1" as="geometry">
            <mxPoint x="758" y="410" as="sourcePoint" />
            <mxPoint x="840" y="410" as="targetPoint" />
          </mxGeometry>
        </mxCell>
      </root>
    </mxGraphModel>
  </diagram>
</mxfile>
